<svg width="33" height="32" viewBox="0 0 33 32" fill="none" xmlns="http://www.w3.org/2000/svg">
<path d="M25.6979 11.3437L18.875 5.88542C17.5417 4.82292 15.4583 4.8125 14.1354 5.875L7.3125 11.3437C6.33334 12.125 5.73959 13.6875 5.94792 14.9167L7.26042 22.7708C7.5625 24.5312 9.19792 25.9167 10.9792 25.9167H22.0208C23.7813 25.9167 25.4479 24.5 25.75 22.7604L27.0625 14.9062C27.25 13.6875 26.6563 12.125 25.6979 11.3437ZM17.2813 21.75C17.2813 22.1771 16.9271 22.5312 16.5 22.5312C16.0729 22.5312 15.7188 22.1771 15.7188 21.75V18.625C15.7188 18.1979 16.0729 17.8437 16.5 17.8437C16.9271 17.8437 17.2813 18.1979 17.2813 18.625V21.75Z" fill="#2B388F"/>
</svg>
