<svg width="24" height="24" viewBox="0 0 24 24" fill="none" xmlns="http://www.w3.org/2000/svg">
<path d="M17.3985 19.0038C17.0309 19.0038 16.6632 18.8684 16.373 18.5781L5.42086 7.62601C4.85971 7.06486 4.85971 6.13606 5.42086 5.57491C5.98201 5.01377 6.91081 5.01377 7.47196 5.57491L18.4241 16.527C18.9852 17.0882 18.9852 18.017 18.4241 18.5781C18.1338 18.8684 17.7662 19.0038 17.3985 19.0038Z" fill="white"/>
<path d="M6.44641 19.0038C6.07876 19.0038 5.71111 18.8684 5.42086 18.5781C4.85971 18.017 4.85971 17.0882 5.42086 16.527L16.373 5.57491C16.9341 5.01377 17.8629 5.01377 18.4241 5.57491C18.9852 6.13606 18.9852 7.06486 18.4241 7.62601L7.47196 18.5781C7.20106 18.8684 6.81406 19.0038 6.44641 19.0038Z" fill="white"/>
</svg>
