<svg width="33" height="32" viewBox="0 0 33 32" fill="none" xmlns="http://www.w3.org/2000/svg">
<path d="M23.0833 16.2812H19.625C17.0312 16.2812 15.7188 14.8125 15.7188 11.9062V8.91666C15.7188 7.85416 15.8438 6.33333 16.9479 5.49999C17.875 4.81249 19.2083 4.76041 21.1771 5.33333C23.7604 6.08333 25.9167 8.23958 26.6667 10.8229C27.2396 12.7812 27.1875 14.125 26.5 15.0417C25.6667 16.1562 24.1458 16.2812 23.0833 16.2812ZM18.875 6.49999C18.4479 6.49999 18.1146 6.58333 17.8958 6.74999C17.4896 7.05208 17.2917 7.76041 17.2917 8.91666V11.9167C17.2917 14.25 18.1875 14.7292 19.6354 14.7292H23.0937C24.2396 14.7292 24.9479 14.5312 25.2604 14.125C25.625 13.6458 25.5937 12.6875 25.1875 11.2812C24.5833 9.22916 22.8125 7.44791 20.7604 6.85416C19.9896 6.61458 19.3646 6.49999 18.875 6.49999Z" fill="#676767"/>
<path d="M15.5313 26.6979C14.9792 26.6979 14.4167 26.6563 13.8542 26.5625C9.59381 25.875 6.12506 22.4167 5.43756 18.1563C4.55214 12.6771 8.08339 7.51042 13.4896 6.40625C13.9167 6.32292 14.323 6.59375 14.4167 7.01042C14.5001 7.4375 14.2292 7.84375 13.8126 7.9375C9.23964 8.875 6.23964 13.25 7.00006 17.9063C7.58339 21.5104 10.5105 24.4375 14.1146 25.0208C18.7917 25.7708 23.1563 22.7604 24.0834 18.1667C24.1667 17.7396 24.5834 17.4688 25.0001 17.5521C25.4271 17.6354 25.698 18.0521 25.6146 18.4688C24.6251 23.3333 20.3751 26.6979 15.5313 26.6979Z" fill="#676767"/>
</svg>
