<svg width="33" height="32" viewBox="0 0 33 32" fill="none" xmlns="http://www.w3.org/2000/svg">
<path d="M16.5208 24.3854C14.0938 24.3854 11.6667 24 9.36459 23.2292C8.48959 22.9271 7.82292 22.3125 7.53126 21.5104C7.22917 20.7083 7.33334 19.8229 7.81251 19.0313L9.01042 17.0417C9.26042 16.625 9.48959 15.7917 9.48959 15.3021V12.2917C9.48959 8.41667 12.6458 5.26042 16.5208 5.26042C20.3958 5.26042 23.5521 8.41667 23.5521 12.2917V15.3021C23.5521 15.7813 23.7813 16.625 24.0313 17.0521L25.2188 19.0313C25.6667 19.7813 25.75 20.6875 25.4479 21.5104C25.1458 22.3333 24.4896 22.9583 23.6667 23.2292C21.375 24 18.9479 24.3854 16.5208 24.3854ZM16.5208 6.82292C13.5104 6.82292 11.0521 9.27084 11.0521 12.2917V15.3021C11.0521 16.0625 10.7396 17.1875 10.3542 17.8438L9.15626 19.8333C8.92709 20.2188 8.86459 20.625 9.00001 20.9688C9.12501 21.3229 9.43751 21.5938 9.86459 21.7396C14.2188 23.1979 18.8333 23.1979 23.1875 21.7396C23.5625 21.6146 23.8542 21.3333 23.9896 20.9583C24.125 20.5833 24.0938 20.1771 23.8854 19.8333L22.6875 17.8438C22.2917 17.1667 21.9896 16.0521 21.9896 15.2917V12.2917C21.9896 9.27084 19.5417 6.82292 16.5208 6.82292Z" fill="#676767"/>
<path d="M18.4583 7.10417C18.3854 7.10417 18.3125 7.09375 18.2396 7.07292C17.9375 6.98959 17.6458 6.92709 17.3646 6.88542C16.4791 6.77084 15.625 6.83334 14.8229 7.07292C14.5312 7.16667 14.2187 7.07292 14.0208 6.85417C13.8229 6.63542 13.7604 6.32292 13.875 6.04167C14.3021 4.94792 15.3437 4.22917 16.5312 4.22917C17.7187 4.22917 18.7604 4.93751 19.1875 6.04167C19.2916 6.32292 19.2396 6.63542 19.0416 6.85417C18.8854 7.02084 18.6666 7.10417 18.4583 7.10417Z" fill="#676767"/>
<path d="M16.5208 26.7604C15.4896 26.7604 14.4896 26.3438 13.7604 25.6146C13.0312 24.8854 12.6146 23.8854 12.6146 22.8542H14.1771C14.1771 23.4688 14.4271 24.0729 14.8646 24.5104C15.3021 24.9479 15.9062 25.1979 16.5208 25.1979C17.8125 25.1979 18.8646 24.1458 18.8646 22.8542H20.4271C20.4271 25.0104 18.6771 26.7604 16.5208 26.7604Z" fill="#676767"/>
</svg>
