<svg width="18" height="18" viewBox="0 0 18 18" fill="none" xmlns="http://www.w3.org/2000/svg">
<path d="M0 18V11.715H6.2925V14.4H6.5175C7.2825 14.4 8.04 14.4 8.805 14.4C8.8725 14.4 8.9475 14.4075 9.015 14.415V16.2075H6.3075V18H0ZM1.8075 16.185H4.4925V13.5075H1.8075V16.185Z" fill="white"/>
<path d="M18 6.2925C16.2075 6.2925 14.415 6.2925 12.6225 6.2925C12.3225 6.2925 12.03 6.2925 11.715 6.2925V0H18V6.2925ZM13.515 1.8075V4.4925H16.1925V1.8075H13.515Z" fill="white"/>
<path d="M12.585 18H9V16.2075H10.7925V14.415C10.845 14.415 10.8975 14.4075 10.95 14.4075C12.6525 14.4075 14.355 14.4075 16.0575 14.4075C16.11 14.4075 16.1625 14.415 16.215 14.4225V16.2075H17.1V18H14.43V16.215H12.615C12.615 16.305 12.615 16.38 12.615 16.455C12.615 16.9725 12.6075 17.4825 12.6 18H12.585Z" fill="white"/>
<path d="M18 14.415H16.2075V12.585H18V14.415Z" fill="white"/>
<path d="M8.07001 3.57001C8.07751 3.62251 8.09251 3.67501 8.09251 3.72751C8.09251 4.54501 8.09251 5.35501 8.09251 6.17251C8.09251 6.21751 8.07751 6.26251 8.07001 6.30751H0.00750732V0.00750732H6.29251V3.58501C6.37501 3.58501 6.43501 3.59251 6.49501 3.59251C6.96001 3.59251 7.43251 3.59251 7.89751 3.59251C7.95751 3.59251 8.01001 3.57751 8.07001 3.57001ZM4.49251 1.80751H1.81501V4.48501H4.50001V1.80751H4.49251Z" fill="white"/>
<path d="M10.7925 11.7075V9.90001H9.91502C9.91502 9.84001 9.90002 9.79501 9.90002 9.75001C9.90002 9.24751 9.90002 8.74501 9.90002 8.24251C9.90002 8.18251 9.91502 8.13001 9.92252 8.07001C9.99752 8.07751 10.0725 8.09251 10.1475 8.09251C12.0825 8.09251 14.0175 8.09251 15.96 8.09251H16.2075V12.585C15.615 12.585 15.03 12.585 14.4375 12.585C14.43 12.585 14.4225 12.57 14.3925 12.5475V9.90751H12.5925V11.7H10.7925V11.7075Z" fill="white"/>
<path d="M8.07751 3.57751C8.08501 3.51751 8.10001 3.45001 8.10001 3.39001C8.10001 2.34001 8.10001 1.28251 8.10001 0.232507V0.00750732H9.89251V3.57751C9.84751 3.57751 9.81001 3.59251 9.77251 3.59251C9.25501 3.59251 8.74501 3.59251 8.22751 3.59251C8.17501 3.59251 8.12251 3.57751 8.07001 3.57001L8.07751 3.57751Z" fill="white"/>
<path d="M0 9.89251V8.10751H3.585V9.89251H0Z" fill="white"/>
<path d="M8.06998 8.07001C8.06998 8.07001 8.09248 8.11501 8.09248 8.13751C8.09248 8.71501 8.09248 9.29251 8.09248 9.88501H5.41498V8.09251H5.60248C6.35998 8.09251 7.12498 8.09251 7.88248 8.09251C7.94248 8.09251 8.00998 8.07751 8.06998 8.07001Z" fill="white"/>
<path d="M9 14.415V11.7075H10.785V14.415H9Z" fill="white"/>
<path d="M9.93001 8.06999C9.87001 8.07749 9.80251 8.09249 9.74251 8.09249C9.24751 8.09249 8.75251 8.09249 8.25751 8.09249C8.19751 8.09249 8.13001 8.07749 8.07001 8.06999C8.07001 8.06999 8.09251 7.99499 8.09251 7.95749C8.09251 7.43999 8.09251 6.91499 8.09251 6.39749C8.09251 6.35999 8.07751 6.32999 8.07751 6.29999C8.67751 6.29999 9.27751 6.29999 9.90001 6.29999C9.90001 6.37499 9.90751 6.43499 9.90751 6.49499C9.90751 6.95999 9.90751 7.41749 9.90751 7.88249C9.90751 7.94249 9.92251 8.00999 9.93001 8.06999Z" fill="white"/>
</svg>
